<svg width="32" height="29" viewBox="0 0 32 29" fill="none" xmlns="http://www.w3.org/2000/svg">
<g clip-path="url(#clip0_19_106)" filter="url(#filter0_d_19_106)">
<path d="M6.48548 4.48304C6.43985 3.19123 7.46064 2 8.84042 2H22.9789C24.3587 2 25.3795 3.19123 25.3338 4.48304C25.29 5.72395 25.3469 7.33141 25.7572 8.64208C26.1688 9.95681 26.8629 10.7878 27.9997 10.8946V12.1054C26.8629 12.2122 26.1688 13.0432 25.7572 14.3579C25.3469 15.6686 25.29 17.276 25.3338 18.517C25.3795 19.8088 24.3587 21 22.9789 21H8.84042C7.46064 21 6.43985 19.8088 6.48552 18.517C6.5293 17.276 6.47239 15.6686 6.06206 14.3579C5.65049 13.0432 4.9547 12.2122 3.81787 12.1054V10.8946C4.95465 10.7878 5.65049 9.95681 6.06206 8.64208C6.47239 7.33141 6.5293 5.72395 6.48548 4.48304Z" fill="url(#paint0_linear_19_106)"/>
<g filter="url(#filter1_d_19_106)">
<path d="M16.4332 16.5507C18.6671 16.5507 20.0132 15.4723 20.0132 13.6935C20.0132 12.3489 19.0527 11.3755 17.6266 11.2214V11.1654C18.6744 10.9973 19.4966 10.0379 19.4966 8.96644C19.4966 7.43979 18.2742 6.44531 16.4114 6.44531H12.2202V16.5507H16.4332ZM13.8501 7.72688H16.0185C17.1973 7.72688 17.8667 8.2451 17.8667 9.1835C17.8667 10.185 17.0881 10.7452 15.6765 10.7452H13.8501V7.72688ZM13.8501 15.2692V11.9427H16.0039C17.5465 11.9427 18.3469 12.503 18.3469 13.5955C18.3469 14.6879 17.5684 15.2692 16.0985 15.2692H13.8501Z" fill="url(#paint1_linear_19_106)"/>
<path d="M16.4332 16.5507C18.6671 16.5507 20.0132 15.4723 20.0132 13.6935C20.0132 12.3489 19.0527 11.3755 17.6266 11.2214V11.1654C18.6744 10.9973 19.4966 10.0379 19.4966 8.96644C19.4966 7.43979 18.2742 6.44531 16.4114 6.44531H12.2202V16.5507H16.4332ZM13.8501 7.72688H16.0185C17.1973 7.72688 17.8667 8.2451 17.8667 9.1835C17.8667 10.185 17.0881 10.7452 15.6765 10.7452H13.8501V7.72688ZM13.8501 15.2692V11.9427H16.0039C17.5465 11.9427 18.3469 12.503 18.3469 13.5955C18.3469 14.6879 17.5684 15.2692 16.0985 15.2692H13.8501Z" stroke="white"/>
</g>
</g>
<defs>
<filter id="filter0_d_19_106" x="0" y="0" width="32" height="32" filterUnits="userSpaceOnUse" color-interpolation-filters="sRGB">
<feFlood flood-opacity="0" result="BackgroundImageFix"/>
<feColorMatrix in="SourceAlpha" type="matrix" values="0 0 0 0 0 0 0 0 0 0 0 0 0 0 0 0 0 0 127 0" result="hardAlpha"/>
<feOffset dy="4"/>
<feGaussianBlur stdDeviation="2"/>
<feComposite in2="hardAlpha" operator="out"/>
<feColorMatrix type="matrix" values="0 0 0 0 0 0 0 0 0 0 0 0 0 0 0 0 0 0 0.25 0"/>
<feBlend mode="normal" in2="BackgroundImageFix" result="effect1_dropShadow_19_106"/>
<feBlend mode="normal" in="SourceGraphic" in2="effect1_dropShadow_19_106" result="shape"/>
</filter>
<filter id="filter1_d_19_106" x="-4.27979" y="-6.05469" width="40.793" height="43.1055" filterUnits="userSpaceOnUse" color-interpolation-filters="sRGB">
<feFlood flood-opacity="0" result="BackgroundImageFix"/>
<feColorMatrix in="SourceAlpha" type="matrix" values="0 0 0 0 0 0 0 0 0 0 0 0 0 0 0 0 0 0 127 0" result="hardAlpha"/>
<feOffset dy="4"/>
<feGaussianBlur stdDeviation="8"/>
<feColorMatrix type="matrix" values="0 0 0 0 0 0 0 0 0 0 0 0 0 0 0 0 0 0 0.15 0"/>
<feBlend mode="normal" in2="BackgroundImageFix" result="effect1_dropShadow_19_106"/>
<feBlend mode="normal" in="SourceGraphic" in2="effect1_dropShadow_19_106" result="shape"/>
</filter>
<linearGradient id="paint0_linear_19_106" x1="7.41109" y1="2.50285" x2="28.3108" y2="19.3287" gradientUnits="userSpaceOnUse">
<stop stop-color="#9013FE"/>
<stop offset="1" stop-color="#6610F2"/>
</linearGradient>
<linearGradient id="paint1_linear_19_106" x1="12.9573" y1="7.11045" x2="17.5826" y2="15.0439" gradientUnits="userSpaceOnUse">
<stop stop-color="white"/>
<stop offset="1" stop-color="#F1E5FC"/>
</linearGradient>
<clipPath id="clip0_19_106">
<rect width="24" height="24" fill="white" transform="translate(4)"/>
</clipPath>
</defs>
</svg>
