<svg width="32" height="28" viewBox="0 0 32 28" fill="none" xmlns="http://www.w3.org/2000/svg">
<g filter="url(#filter0_d_19_106)">
<path d="M9.97312 7.94023H14.4887L13.79 10.6201C13.694 10.9777 13.4834 11.2938 13.1906 11.5201C12.8995 11.7462 12.54 11.8661 12.1716 11.8601H10.073C9.61605 11.8538 9.17027 12.0017 8.8076 12.2801C8.43604 12.568 8.16644 12.9675 8.03836 13.42C7.94585 13.7526 7.93556 14.1026 8.00839 14.44C8.0753 14.7477 8.20724 15.0375 8.39534 15.29C8.58593 15.54 8.83224 15.7421 9.11463 15.88C9.41258 16.0278 9.74117 16.1031 10.0737 16.1H11.3524C11.4666 16.098 11.5796 16.1233 11.6821 16.1737C11.7846 16.2241 11.8737 16.2982 11.9418 16.3899C12.0166 16.4785 12.0679 16.5844 12.0912 16.6979C12.1144 16.8115 12.1089 16.9291 12.075 17.0399L11.2758 19.9998H9.87722C8.95664 20.009 8.04777 19.7927 7.22982 19.3698C6.44433 18.9685 5.75724 18.3982 5.21781 17.6999C4.68297 17.0022 4.3109 16.1936 4.12888 15.3333C3.93577 14.4295 3.95997 13.4927 4.19948 12.6001L4.2794 12.3001C4.61738 11.0471 5.35788 9.94019 6.38665 9.15019C6.89117 8.76729 7.45316 8.4669 8.05168 8.26022C8.66953 8.04579 9.31919 7.9376 9.97312 7.94023Z" fill="#FF6C2C"/>
<path d="M12.2505 19.9997L16.1873 5.24023C16.2833 4.88268 16.4939 4.56653 16.7867 4.34027C17.0775 4.11418 17.4368 3.99423 17.805 4.00028H21.9816C22.9021 3.99116 23.811 4.20743 24.629 4.63026C25.4136 5.03098 26.0995 5.60134 26.6368 6.30004C27.1742 6.99874 27.5496 7.80831 27.7359 8.67012C27.9359 9.57376 27.9084 10.513 27.656 11.4034L27.5761 11.7033C27.4076 12.3329 27.1376 12.9307 26.7768 13.4733C26.243 14.2777 25.5183 14.9371 24.6675 15.3926C23.8167 15.848 22.8664 16.0853 21.9016 16.0832H18.2852L19.0045 13.3833C19.1045 13.033 19.3147 12.7244 19.6039 12.5033C19.8951 12.2773 20.2545 12.1573 20.6229 12.1633H21.7818C22.2485 12.1638 22.7021 12.0088 23.0711 11.7228C23.4401 11.4367 23.7035 11.0358 23.8198 10.5834C23.9117 10.2632 23.9209 9.92482 23.8464 9.60008C23.7787 9.29215 23.6458 9.00232 23.4568 8.75011C23.2647 8.49899 23.0189 8.294 22.7375 8.15013C22.4424 7.99659 22.1143 7.91763 21.7818 7.92014H19.544L16.6268 18.7798C16.5269 19.13 16.3167 19.4386 16.0274 19.6597C15.7428 19.8836 15.3904 20.0035 15.0284 19.9997H12.2505Z" fill="#FF6C2C"/>
</g>
<defs>
<filter id="filter0_d_19_106" x="0" y="0" width="32" height="32" filterUnits="userSpaceOnUse" color-interpolation-filters="sRGB">
<feFlood flood-opacity="0" result="BackgroundImageFix"/>
<feColorMatrix in="SourceAlpha" type="matrix" values="0 0 0 0 0 0 0 0 0 0 0 0 0 0 0 0 0 0 127 0" result="hardAlpha"/>
<feOffset dy="4"/>
<feGaussianBlur stdDeviation="2"/>
<feComposite in2="hardAlpha" operator="out"/>
<feColorMatrix type="matrix" values="0 0 0 0 0 0 0 0 0 0 0 0 0 0 0 0 0 0 0.25 0"/>
<feBlend mode="normal" in2="BackgroundImageFix" result="effect1_dropShadow_19_106"/>
<feBlend mode="normal" in="SourceGraphic" in2="effect1_dropShadow_19_106" result="shape"/>
</filter>
</defs>
</svg>
