<svg width="32" height="32" viewBox="0 0 32 32" fill="none" xmlns="http://www.w3.org/2000/svg">
<g clip-path="url(#clip0_19_106)" filter="url(#filter0_d_19_106)">
<path d="M4 4C4 1.79086 5.79086 0 8 0H24C26.2091 0 28 1.79086 28 4V20.0002C28 22.2093 26.2091 24.0002 24 24.0002H8C5.79086 24.0002 4 22.2093 4 20.0002V4Z" fill="#F0DB4F"/>
<path d="M26.0361 18.276C25.8603 17.1811 25.1463 16.2615 23.0315 15.4039C22.2968 15.0663 21.4778 14.8245 21.2337 14.2678C21.1471 13.9438 21.1356 13.7613 21.1904 13.5652C21.3478 12.9287 22.1076 12.7302 22.7098 12.9127C23.0976 13.0427 23.4647 13.3416 23.6862 13.8184C24.7218 13.1478 24.7197 13.1522 25.4429 12.6913C25.1781 12.2808 25.0368 12.0914 24.8635 11.9158C24.2406 11.2201 23.3919 10.8617 22.0345 10.8892L21.3275 10.9806C20.6499 11.1518 20.0042 11.5074 19.6256 11.9843C18.4895 13.2734 18.8135 15.5295 20.196 16.458C21.5579 17.4802 23.5587 17.7128 23.8142 18.6687C24.0629 19.8389 22.9542 20.2178 21.8522 20.0832C21.0401 19.9143 20.5884 19.5015 20.1001 18.7509C19.2013 19.2711 19.2013 19.2711 18.2772 19.8025C18.4964 20.2816 18.7266 20.4984 19.094 20.9135C20.8325 22.6769 25.1829 22.5903 25.9632 19.9212C25.9948 19.8295 26.205 19.2183 26.0361 18.276ZM17.0474 11.0305H14.8025L14.7933 16.8341C14.7933 18.0684 14.8572 19.1999 14.6565 19.5468C14.328 20.2289 13.477 20.1443 13.0892 20.012C12.6944 19.818 12.4937 19.5421 12.2611 19.1522C12.1973 19.0402 12.1494 18.9536 12.1333 18.9469L10.3081 20.0646C10.6116 20.6875 11.0587 21.2281 11.6313 21.5793C12.4868 22.0928 13.6365 22.2502 14.839 21.9741C15.6216 21.7461 16.2968 21.2739 16.6503 20.5552C17.1614 19.6129 17.0518 18.4724 17.0472 17.2109C17.0587 15.1528 17.0474 13.0951 17.0474 11.0305Z" fill="white"/>
</g>
<defs>
<filter id="filter0_d_19_106" x="0" y="0" width="32" height="32" filterUnits="userSpaceOnUse" color-interpolation-filters="sRGB">
<feFlood flood-opacity="0" result="BackgroundImageFix"/>
<feColorMatrix in="SourceAlpha" type="matrix" values="0 0 0 0 0 0 0 0 0 0 0 0 0 0 0 0 0 0 127 0" result="hardAlpha"/>
<feOffset dy="4"/>
<feGaussianBlur stdDeviation="2"/>
<feComposite in2="hardAlpha" operator="out"/>
<feColorMatrix type="matrix" values="0 0 0 0 0 0 0 0 0 0 0 0 0 0 0 0 0 0 0.25 0"/>
<feBlend mode="normal" in2="BackgroundImageFix" result="effect1_dropShadow_19_106"/>
<feBlend mode="normal" in="SourceGraphic" in2="effect1_dropShadow_19_106" result="shape"/>
</filter>
<clipPath id="clip0_19_106">
<rect width="24" height="24" fill="white" transform="translate(4)"/>
</clipPath>
</defs>
</svg>
