<svg width="29" height="30" viewBox="0 0 29 30" fill="none" xmlns="http://www.w3.org/2000/svg">
<g filter="url(#filter0_d_19_106)">
<path d="M23.3393 17.2525C22.1935 17.2205 21.3186 17.3297 20.5701 17.6509C20.3576 17.7425 20.0188 17.7446 19.9841 18.0161C20.101 18.141 20.1189 18.3274 20.212 18.4812C20.3905 18.775 20.6922 19.1701 20.9612 19.3776C21.2552 19.6034 21.5582 19.8454 21.8734 20.041C22.4344 20.3897 23.0603 20.5887 23.5995 20.9374C23.9179 21.1435 24.2336 21.4026 24.5443 21.6349C24.6978 21.7494 24.8012 21.928 25 22V21.9673C24.8953 21.8313 24.8684 21.6441 24.7721 21.5022L24.3485 21.0704C23.9344 20.5103 23.4087 20.0184 22.8503 19.6101C22.4048 19.2836 21.4074 18.8433 21.2218 18.3154L21.1891 18.282C21.505 18.2454 21.8747 18.1289 22.1667 18.0491C22.6564 17.9156 23.0943 17.9502 23.5995 17.8167L24.2837 17.6179V17.4851C24.0282 17.2181 23.8459 16.8642 23.5674 16.6222C22.8376 15.9889 22.0416 15.3568 21.222 14.8295C20.7675 14.5371 20.2058 14.3467 19.7238 14.0988C19.5615 14.0157 19.277 13.9718 19.1699 13.8331C18.917 13.5047 18.779 13.088 18.5839 12.7046C18.1751 11.9018 17.7738 11.0258 17.4111 10.1812C17.164 9.60549 17.0029 9.03753 16.6948 8.52132C15.2159 6.04296 13.6241 4.54676 11.1579 3.07652C10.6329 2.76382 10.0012 2.64021 9.33354 2.47858L8.25836 2.41242C8.03947 2.31946 7.81221 2.04662 7.60681 1.9138C6.78994 1.38738 4.69414 0.243076 4.08876 1.74782C3.70687 2.69716 4.66012 3.62355 5.00093 4.10509C5.24035 4.44208 5.54649 4.82078 5.71723 5.20031C5.83028 5.45021 5.84951 5.7001 5.9458 5.9639C6.1821 6.61427 6.38866 7.32209 6.69496 7.92271C6.84959 8.22687 7.02033 8.54695 7.2162 8.81912C7.33567 8.98594 7.54157 9.05997 7.57443 9.31707C7.37281 9.60432 7.3613 10.0498 7.24841 10.413C6.73933 12.0494 6.93192 14.0827 7.67204 15.2932C7.8993 15.6655 8.43468 16.4622 9.1702 16.1567C9.81403 15.8891 9.67024 15.0615 9.85445 14.3308C9.89619 14.1653 9.87055 14.0435 9.95206 13.9323V13.9656L10.5387 15.1603C10.9727 15.8728 11.7422 16.6173 12.3951 17.1198C12.7334 17.3803 12.9998 17.8303 13.4376 17.9827V17.9494H13.4049C13.3201 17.8146 13.1873 17.759 13.0795 17.6511C12.8246 17.396 12.541 17.0793 12.3303 16.7875C11.7366 15.9665 11.2121 15.0674 10.7346 14.1319C10.506 13.6851 10.3077 13.1925 10.1151 12.7377C10.0406 12.5624 10.0419 12.2967 9.88715 12.2065C9.67665 12.5394 9.36591 12.8091 9.2029 13.2022C8.94294 13.831 8.90892 14.5984 8.81263 15.3933C8.75544 15.4143 8.78058 15.3998 8.74722 15.4266C8.29336 15.3148 8.13429 14.8391 7.96536 14.4302C7.5391 13.3978 7.45957 11.7353 7.83505 10.546C7.93201 10.2384 8.37108 9.27018 8.19328 8.98561C8.10849 8.70238 7.82864 8.53807 7.67204 8.32151C7.47814 8.05386 7.28506 7.70129 7.1508 7.39176C6.80161 6.58697 6.63926 5.68285 6.27133 4.86901C6.0955 4.47976 5.7989 4.08582 5.55504 3.74046C5.28472 3.35707 4.98253 3.07435 4.77318 2.61123C4.69874 2.44642 4.59801 2.18262 4.70778 2.01396C4.74311 1.8994 4.79257 1.85166 4.90349 1.81448C5.09213 1.66591 5.61863 1.86422 5.815 1.9473C6.33756 2.16839 6.77335 2.37909 7.2162 2.67806C7.42802 2.82127 7.64312 3.0988 7.8998 3.17601H8.19312C8.65142 3.28337 9.16494 3.20867 9.59367 3.34149C10.351 3.57632 11.0295 3.94145 11.6458 4.3379C13.5227 5.54635 15.0581 7.26564 16.1082 9.31808C16.2769 9.64854 16.3502 9.96325 16.4991 10.3138C16.7988 11.0205 17.177 11.7474 17.4754 12.4389C17.7738 13.1278 18.064 13.8241 18.4856 14.3977C18.7072 14.6994 19.5621 14.861 19.9511 15.0285C20.2239 15.1456 20.6707 15.268 20.9287 15.427C21.4216 15.73 21.8992 16.0911 22.3621 16.4227C22.5925 16.5889 23.3037 16.9533 23.339 17.253L23.3393 17.2525ZM8.77927 4.60354C8.5405 4.59902 8.37174 4.62967 8.19328 4.6697V4.70303H8.22533C8.33953 4.9412 8.5405 5.09496 8.68166 5.3003L9.00702 5.99773L9.03972 5.96507C9.24135 5.81986 9.3337 5.58822 9.33239 5.23431C9.25154 5.14722 9.24004 5.03935 9.16938 4.93534C9.07703 4.79733 8.8966 4.71944 8.7791 4.60371L8.77927 4.60354Z" fill="#00618A"/>
</g>
<defs>
<filter id="filter0_d_19_106" x="-1" y="0" width="32" height="32" filterUnits="userSpaceOnUse" color-interpolation-filters="sRGB">
<feFlood flood-opacity="0" result="BackgroundImageFix"/>
<feColorMatrix in="SourceAlpha" type="matrix" values="0 0 0 0 0 0 0 0 0 0 0 0 0 0 0 0 0 0 127 0" result="hardAlpha"/>
<feOffset dy="4"/>
<feGaussianBlur stdDeviation="2"/>
<feComposite in2="hardAlpha" operator="out"/>
<feColorMatrix type="matrix" values="0 0 0 0 0 0 0 0 0 0 0 0 0 0 0 0 0 0 0.25 0"/>
<feBlend mode="normal" in2="BackgroundImageFix" result="effect1_dropShadow_19_106"/>
<feBlend mode="normal" in="SourceGraphic" in2="effect1_dropShadow_19_106" result="shape"/>
</filter>
</defs>
</svg>
