<svg width="32" height="26" viewBox="0 0 32 26" fill="none" xmlns="http://www.w3.org/2000/svg">
<g filter="url(#filter0_d_19_106)">
<path d="M4 11.5C4 15.0897 9.33046 18 15.9058 18C22.4812 18 27.8117 15.0897 27.8117 11.5C27.8117 7.9103 22.481 5 15.9058 5C9.33046 5 4 7.9103 4 11.5Z" fill="url(#paint0_radial_19_106)"/>
<path d="M15.9056 17.5173C22.2241 17.5173 27.3464 14.8231 27.3464 11.5C27.3464 8.17654 22.2241 5.48267 15.9056 5.48267C9.58714 5.48267 4.46484 8.17654 4.46484 11.5C4.46484 14.8231 9.58714 17.5173 15.9056 17.5173Z" fill="#777BB3"/>
<path d="M10.4688 12.2464C10.9884 12.2464 11.376 12.147 11.6214 11.951C11.8644 11.7568 12.032 11.4207 12.12 10.9519C12.2018 10.5137 12.1706 10.2078 12.027 10.0426C11.8804 9.87383 11.5632 9.7883 11.0844 9.7883H10.2539L9.79387 12.2464H10.4688ZM7.75295 15.2743C7.7339 15.2743 7.71509 15.2699 7.69787 15.2614C7.68065 15.253 7.66545 15.2406 7.65336 15.2254C7.64126 15.2101 7.63258 15.1922 7.62793 15.173C7.62328 15.1539 7.62277 15.1339 7.62645 15.1145L8.84624 8.60074C8.85201 8.57029 8.86776 8.54286 8.89083 8.52311C8.91389 8.50336 8.94284 8.49252 8.97274 8.49243H11.6021C12.4284 8.49243 13.0434 8.72527 13.4302 9.18458C13.8186 9.64601 13.9388 10.2916 13.7868 11.1027C13.7248 11.433 13.6184 11.7398 13.4705 12.0148C13.3166 12.2975 13.1202 12.553 12.8886 12.7716C12.6038 13.048 12.2814 13.2488 11.9312 13.3668C11.5866 13.4834 11.1439 13.5425 10.6159 13.5425H9.5511L9.24713 15.1658C9.24139 15.1964 9.2256 15.2239 9.20245 15.2437C9.17931 15.2635 9.15025 15.2743 9.12026 15.2743H7.75295Z" fill="black"/>
<path d="M10.3604 9.92219H11.0843C11.6622 9.92219 11.863 10.0539 11.9312 10.1324C12.0442 10.2626 12.0657 10.5373 11.9928 10.9263C11.9112 11.3621 11.7597 11.6712 11.5426 11.8446C11.3205 12.0222 10.9589 12.1122 10.4687 12.1122H9.95041L10.3606 9.92239L10.3604 9.92219ZM11.602 8.35835H8.97283C8.91288 8.35835 8.85478 8.37998 8.8085 8.41953C8.76221 8.45908 8.73061 8.5141 8.71909 8.57516L7.4993 15.0891C7.4921 15.1279 7.49324 15.1678 7.50264 15.2061C7.51205 15.2444 7.52948 15.2801 7.5537 15.3106C7.57793 15.3411 7.60834 15.3656 7.64276 15.3825C7.67719 15.3994 7.71478 15.4081 7.75286 15.4082H9.12017C9.18012 15.4081 9.23818 15.3865 9.28444 15.3469C9.33069 15.3073 9.36225 15.2523 9.37372 15.1912L9.65742 13.6764H10.6157C11.1574 13.6764 11.6135 13.615 11.9712 13.4941C12.339 13.3702 12.6774 13.1599 12.9769 12.8692C13.2181 12.6412 13.4227 12.3749 13.5832 12.0801C13.7378 11.793 13.849 11.4725 13.9134 11.1281C14.0734 10.2742 13.9433 9.5905 13.5272 9.09625C13.1149 8.60644 12.4672 8.35815 11.602 8.35815V8.35835ZM9.63695 12.3801H10.4687C11.0199 12.3801 11.4305 12.2726 11.7002 12.0567C11.9701 11.8413 12.1519 11.4814 12.2467 10.9773C12.337 10.4931 12.2959 10.1516 12.123 9.95251C11.9498 9.75365 11.6038 9.65402 11.0843 9.65402H10.1474L9.63695 12.3801ZM11.6022 8.62594C12.3932 8.62594 12.97 8.8416 13.3328 9.27233C13.6955 9.70325 13.8046 10.3047 13.6602 11.0767C13.6003 11.3949 13.4997 11.6857 13.3579 11.949C13.2158 12.2127 13.0305 12.4537 12.8015 12.6724C12.5284 12.9375 12.2254 13.1265 11.8914 13.2391C11.5577 13.3518 11.1324 13.408 10.6158 13.408H9.4446L9.12035 15.1398H7.75304L8.97302 8.62594H11.6022Z" fill="white"/>
<path d="M16.9212 13.5424C16.9021 13.5424 16.8833 13.538 16.866 13.5296C16.8488 13.5212 16.8335 13.5089 16.8214 13.4936C16.8093 13.4784 16.8006 13.4605 16.7959 13.4413C16.7912 13.4221 16.7907 13.4021 16.7943 13.3827L17.3338 10.5006C17.3853 10.2264 17.3727 10.0299 17.2984 9.9465C17.2529 9.89572 17.1163 9.81058 16.7125 9.81058H15.7347L15.0564 13.4341C15.0506 13.4646 15.0348 13.492 15.0116 13.5118C14.9884 13.5315 14.9593 13.5422 14.9294 13.5422H13.5732C13.5542 13.5422 13.5354 13.5378 13.5181 13.5294C13.5009 13.521 13.4856 13.5087 13.4735 13.4935C13.4614 13.4783 13.4526 13.4604 13.4479 13.4413C13.4432 13.4221 13.4426 13.4021 13.4462 13.3827L14.6661 6.86881C14.6719 6.83829 14.6877 6.81081 14.7109 6.79105C14.734 6.7713 14.763 6.7605 14.793 6.7605H16.1492C16.1682 6.76049 16.187 6.76484 16.2043 6.77326C16.2215 6.78167 16.2367 6.79394 16.2489 6.80917C16.261 6.82441 16.2698 6.84224 16.2745 6.8614C16.2792 6.88055 16.2798 6.90055 16.2762 6.91997L15.9819 8.49231H17.0335C17.8348 8.49231 18.378 8.63866 18.6944 8.94042C19.0168 9.24798 19.1176 9.73972 18.9935 10.4025L18.426 13.4341C18.4201 13.4645 18.4043 13.492 18.3812 13.5117C18.358 13.5314 18.329 13.5422 18.2991 13.5422H16.9212V13.5424Z" fill="black"/>
<path d="M16.1495 6.62598H14.7932C14.7332 6.62599 14.6751 6.64765 14.6288 6.68723C14.5825 6.72682 14.5509 6.78188 14.5394 6.84298L13.3196 13.3567C13.3124 13.3955 13.3135 13.4355 13.3229 13.4738C13.3323 13.5121 13.3497 13.5478 13.374 13.5783C13.3982 13.6088 13.4286 13.6334 13.4631 13.6503C13.4975 13.6672 13.5351 13.676 13.5732 13.676H14.9295C14.9895 13.676 15.0476 13.6544 15.0939 13.6148C15.1402 13.5752 15.1718 13.5201 15.1833 13.459L15.8413 9.94423H16.7123C17.1156 9.94423 17.2004 10.0336 17.2036 10.0377C17.2281 10.0647 17.2603 10.1912 17.2071 10.4748L16.6676 13.3567C16.6604 13.3955 16.6615 13.4355 16.6709 13.4739C16.6803 13.5122 16.6977 13.5479 16.722 13.5784C16.7462 13.6089 16.7767 13.6335 16.8111 13.6504C16.8456 13.6672 16.8832 13.676 16.9213 13.676H18.2994C18.3594 13.676 18.4175 13.6543 18.4637 13.6147C18.51 13.5751 18.5415 13.5201 18.553 13.459L19.1206 10.4279C19.2536 9.71621 19.1397 9.18257 18.782 8.84142C18.4405 8.51591 17.8686 8.35779 17.0337 8.35779H16.1389L16.4033 6.9455C16.4105 6.90666 16.4094 6.86663 16.4 6.82827C16.3907 6.78992 16.3732 6.7542 16.349 6.72366C16.3247 6.69312 16.2943 6.66853 16.2598 6.65164C16.2253 6.63476 16.1876 6.62599 16.1495 6.62598ZM16.1495 6.89434L15.8253 8.62577H17.0337C17.794 8.62577 18.3186 8.76362 18.607 9.03893C18.8959 9.31425 18.9822 9.76004 18.867 10.3769L18.2993 13.4079H16.9213L17.461 10.5257C17.5224 10.1979 17.4997 9.97434 17.3931 9.85503C17.2865 9.73591 17.0596 9.67625 16.7126 9.67625H15.6283L14.9295 13.4077H13.573L14.793 6.89376H16.1495V6.89434Z" fill="white"/>
<path d="M21.14 12.2464C21.6596 12.2464 22.0474 12.147 22.293 11.951C22.5356 11.7568 22.7034 11.4207 22.7914 10.9519C22.8732 10.5137 22.8421 10.2078 22.6983 10.0426C22.5518 9.87383 22.2346 9.7883 21.7557 9.7883H20.9255L20.4651 12.2464H21.14ZM18.4247 15.2743C18.4056 15.2743 18.3868 15.27 18.3695 15.2615C18.3522 15.2531 18.337 15.2408 18.3249 15.2255C18.3127 15.2102 18.304 15.1923 18.2993 15.1731C18.2947 15.1539 18.2942 15.1339 18.2978 15.1145L19.5176 8.60074C19.5234 8.57023 19.5392 8.54274 19.5624 8.52299C19.5855 8.50323 19.6145 8.49243 19.6445 8.49243H22.2736C23.1 8.49243 23.715 8.72527 24.1016 9.18458C24.4902 9.64601 24.6102 10.2916 24.4582 11.1027C24.4001 11.4222 24.2934 11.7301 24.1421 12.0148C23.9881 12.2975 23.7917 12.553 23.5602 12.7716C23.2756 13.048 22.9528 13.2488 22.6027 13.3668C22.2582 13.4834 21.8155 13.5425 21.2873 13.5425H20.2227L19.9189 15.1658C19.9131 15.1964 19.8973 15.2239 19.8741 15.2437C19.851 15.2635 19.8219 15.2743 19.7918 15.2743H18.4247Z" fill="black"/>
<path d="M21.0318 9.92219H21.7556C22.3336 9.92219 22.5344 10.0539 22.6024 10.1324C22.7159 10.2626 22.7371 10.5373 22.6644 10.9263C22.5825 11.3621 22.4311 11.6712 22.214 11.8446C21.9917 12.0222 21.6301 12.1122 21.1401 12.1122H20.6218L21.0318 9.92219ZM22.2734 8.35835H19.6442C19.5843 8.3584 19.5262 8.38005 19.48 8.41959C19.4338 8.45914 19.4022 8.51413 19.3907 8.57516L18.1707 15.0891C18.1635 15.1279 18.1646 15.1679 18.174 15.2062C18.1835 15.2445 18.2009 15.2802 18.2252 15.3106C18.2494 15.3411 18.2798 15.3657 18.3143 15.3826C18.3487 15.3994 18.3863 15.4082 18.4244 15.4082H19.7917C19.8517 15.4081 19.9098 15.3865 19.956 15.3469C20.0023 15.3073 20.0338 15.2523 20.0453 15.1912L20.329 13.6764H21.287C21.8286 13.6764 22.2849 13.615 22.6424 13.4941C23.0104 13.3702 23.3488 13.1599 23.6485 12.869C23.8896 12.6411 24.0941 12.3748 24.2546 12.0801C24.4093 11.793 24.5202 11.4725 24.5848 11.1281C24.7447 10.2742 24.6149 9.5905 24.1986 9.09625C23.7863 8.60644 23.1388 8.35815 22.2732 8.35815L22.2734 8.35835ZM20.3083 12.3801H21.1399C21.6913 12.3801 22.1017 12.2726 22.3718 12.0567C22.6415 11.8413 22.8234 11.4814 22.9179 10.9773C23.0085 10.4931 22.9674 10.1516 22.7942 9.95251C22.6212 9.75365 22.275 9.65402 21.7556 9.65402H20.819L20.3083 12.3801ZM22.2734 8.62594C23.0642 8.62594 23.6414 8.8416 24.004 9.27233C24.3667 9.70325 24.4759 10.3047 24.3312 11.0767C24.2717 11.3949 24.1709 11.6857 24.0291 11.949C23.8872 12.2127 23.7017 12.4537 23.4725 12.6724C23.1996 12.9375 22.8964 13.1265 22.5624 13.2391C22.2289 13.3518 21.8038 13.408 21.287 13.408H20.116L19.7914 15.1398H18.4241L19.644 8.62594H22.2734Z" fill="white"/>
</g>
<defs>
<filter id="filter0_d_19_106" x="0" y="0" width="32" height="32" filterUnits="userSpaceOnUse" color-interpolation-filters="sRGB">
<feFlood flood-opacity="0" result="BackgroundImageFix"/>
<feColorMatrix in="SourceAlpha" type="matrix" values="0 0 0 0 0 0 0 0 0 0 0 0 0 0 0 0 0 0 127 0" result="hardAlpha"/>
<feOffset dy="4"/>
<feGaussianBlur stdDeviation="2"/>
<feComposite in2="hardAlpha" operator="out"/>
<feColorMatrix type="matrix" values="0 0 0 0 0 0 0 0 0 0 0 0 0 0 0 0 0 0 0.25 0"/>
<feBlend mode="normal" in2="BackgroundImageFix" result="effect1_dropShadow_19_106"/>
<feBlend mode="normal" in="SourceGraphic" in2="effect1_dropShadow_19_106" result="shape"/>
</filter>
<radialGradient id="paint0_radial_19_106" cx="0" cy="0" r="1" gradientUnits="userSpaceOnUse" gradientTransform="translate(11.1483 7.28515) scale(15.6341 16.2256)">
<stop stop-color="#AEB2D5"/>
<stop offset="0.3" stop-color="#AEB2D5"/>
<stop offset="0.75" stop-color="#484C89"/>
<stop offset="1" stop-color="#484C89"/>
</radialGradient>
</defs>
</svg>
