<svg width="16" height="14" viewBox="0 0 16 14" fill="none" xmlns="http://www.w3.org/2000/svg">
<path d="M14.228 0H1.77249C1.56761 0 1.37113 0.0813839 1.22626 0.226248C1.08139 0.371113 1 0.567592 1 0.772461V13.2275C1 13.4324 1.08139 13.6289 1.22626 13.7738C1.37113 13.9186 1.56761 14 1.77249 14H8.47829V8.58008H6.65352V6.46533H8.4778V4.90723C8.4778 3.10059 9.58233 2.11426 11.1957 2.11426C11.7402 2.11235 12.2845 2.14006 12.8261 2.19727V4.08691H11.7074C10.8285 4.08691 10.66 4.50391 10.66 5.11572V6.46484H12.7524L12.4799 8.57764H10.66V13.9976H14.2275C14.4323 13.9974 14.6288 13.916 14.7736 13.7712C14.9184 13.6263 14.9999 13.4299 15 13.2251V0.772461C15 0.567677 14.9187 0.371272 14.7739 0.226421C14.6292 0.0815708 14.4328 0.000129447 14.228 0Z" fill="white"/>
</svg>
