<svg width="28" height="30" viewBox="0 0 28 30" fill="none" xmlns="http://www.w3.org/2000/svg">
<g filter="url(#filter0_d_19_106)">
<path d="M5.42139 11.9998C5.42139 15.3954 7.39478 18.3299 10.2564 19.7205L6.16412 8.50854C5.68812 9.57545 5.42139 10.7561 5.42139 11.9998Z" fill="#21759B"/>
<path d="M19.7917 11.5668C19.7917 10.5066 19.4109 9.77236 19.0842 9.20087C18.6494 8.49423 18.2418 7.89581 18.2418 7.18917C18.2418 6.40058 18.8399 5.66652 19.6823 5.66652C19.7204 5.66652 19.7565 5.67125 19.7935 5.67337C18.2672 4.2751 16.2338 3.42139 14.0003 3.42139C11.0033 3.42139 8.36647 4.95906 6.83252 7.28809C7.03379 7.29413 7.22348 7.29837 7.38459 7.29837C8.28192 7.29837 9.67091 7.1895 9.67091 7.1895C10.1334 7.16223 10.1879 7.84145 9.72592 7.89614C9.72592 7.89614 9.26118 7.95082 8.74404 7.97792L11.8681 17.27L13.7455 11.6396L12.4089 7.97759C11.947 7.95049 11.5093 7.89581 11.5093 7.89581C11.047 7.86871 11.1012 7.16191 11.5635 7.18917C11.5635 7.18917 12.9803 7.29805 13.8232 7.29805C14.7204 7.29805 16.1095 7.18917 16.1095 7.18917C16.5723 7.16191 16.6267 7.84113 16.1645 7.89581C16.1645 7.89581 15.6988 7.95049 15.1827 7.97759L18.2829 17.1994L19.1386 14.34C19.5095 13.1534 19.7917 12.3012 19.7917 11.5668Z" fill="#21759B"/>
<path d="M14.1506 12.7502L11.5767 20.2295C12.3452 20.4554 13.158 20.579 14.0001 20.579C14.9991 20.579 15.9572 20.4063 16.8489 20.0927C16.8259 20.056 16.805 20.017 16.7879 19.9745L14.1506 12.7502Z" fill="#21759B"/>
<path d="M21.528 7.88403C21.5649 8.15729 21.5858 8.45062 21.5858 8.76615C21.5858 9.63668 21.4232 10.6153 20.9335 11.8389L18.313 19.4151C20.8634 17.9279 22.5789 15.1648 22.5789 12C22.5791 10.5085 22.1981 9.10601 21.528 7.88403Z" fill="#21759B"/>
<path d="M14.0003 2C8.48629 2 4 6.48585 4 11.9998C4 17.5143 8.48629 22 14.0003 22C19.5142 22 24.0011 17.5143 24.0011 11.9998C24.001 6.48585 19.5142 2 14.0003 2ZM14.0003 21.5416C8.73915 21.5416 4.45854 17.2611 4.45854 11.9998C4.45854 6.7387 8.73898 2.45853 14.0003 2.45853C19.2613 2.45853 23.5416 6.7387 23.5416 11.9998C23.5416 17.2611 19.2613 21.5416 14.0003 21.5416Z" fill="#21759B"/>
</g>
<defs>
<filter id="filter0_d_19_106" x="-2" y="0" width="32" height="32" filterUnits="userSpaceOnUse" color-interpolation-filters="sRGB">
<feFlood flood-opacity="0" result="BackgroundImageFix"/>
<feColorMatrix in="SourceAlpha" type="matrix" values="0 0 0 0 0 0 0 0 0 0 0 0 0 0 0 0 0 0 127 0" result="hardAlpha"/>
<feOffset dy="4"/>
<feGaussianBlur stdDeviation="2"/>
<feComposite in2="hardAlpha" operator="out"/>
<feColorMatrix type="matrix" values="0 0 0 0 0 0 0 0 0 0 0 0 0 0 0 0 0 0 0.25 0"/>
<feBlend mode="normal" in2="BackgroundImageFix" result="effect1_dropShadow_19_106"/>
<feBlend mode="normal" in="SourceGraphic" in2="effect1_dropShadow_19_106" result="shape"/>
</filter>
</defs>
</svg>
